<svg width="22" height="22" viewBox="0 0 22 22" fill="none" xmlns="http://www.w3.org/2000/svg">
<path d="M20.3371 5.90871C20.1207 5.02826 19.4357 4.33124 18.6064 4.11112C17.0561 3.6709 10.9267 3.6709 10.9267 3.6709C10.9267 3.6709 4.76129 3.6709 3.21093 4.11112C2.38166 4.33124 1.69661 5.02826 1.48028 5.90871C1.04762 7.4495 1.04762 10.7512 1.04762 10.7512C1.04762 10.7512 1.04762 14.0162 1.48028 15.5937C1.69661 16.4741 2.38166 17.1345 3.21093 17.3546C4.76129 17.7581 10.9267 17.7581 10.9267 17.7581C10.9267 17.7581 17.0561 17.7581 18.6064 17.3546C19.4357 17.1345 20.1207 16.4741 20.3371 15.5937C20.7697 14.0162 20.7697 10.7512 20.7697 10.7512C20.7697 10.7512 20.7697 7.4495 20.3371 5.90871ZM8.90762 13.7227V7.77967L14.0274 10.7512L8.90762 13.7227Z" fill="white"/>
</svg>
