<svg width="16" height="18" viewBox="0 0 16 18" fill="none" xmlns="http://www.w3.org/2000/svg">
<g clip-path="url(#clip0_8206_418)">
<path d="M14.4583 3.98258C13.6402 3.80102 12.8994 3.35311 12.3439 2.70414C11.7883 2.05516 11.4471 1.23906 11.37 0.374801V0H8.54783V11.6197C8.54609 12.1341 8.38902 12.635 8.09871 13.052C7.80841 13.4691 7.39944 13.7813 6.9293 13.9447C6.45915 14.1082 5.95146 14.1147 5.47755 13.9634C5.00365 13.8121 4.58736 13.5105 4.28718 13.101C3.98234 12.6847 3.81324 12.1785 3.8044 11.6558C3.79556 11.1331 3.94743 10.621 4.238 10.1939C4.52857 9.76678 4.94273 9.44677 5.42042 9.28029C5.89811 9.11381 6.41449 9.10952 6.89469 9.26804V6.29343C5.82388 6.13985 4.73358 6.33736 3.77629 6.85832C2.819 7.37928 2.04261 8.19764 1.55571 9.19893C1.06881 10.2002 0.895759 11.3344 1.06076 12.4427C1.22575 13.5511 1.72055 14.5782 2.47594 15.3804C3.1963 16.1451 4.11997 16.6698 5.12904 16.8874C6.1381 17.105 7.18678 17.0058 8.14122 16.6023C9.09566 16.1988 9.91256 15.5094 10.4876 14.6221C11.0627 13.7348 11.3699 12.6898 11.37 11.6205V5.68321C12.5105 6.52913 13.878 6.98272 15.28 6.98014V4.07097C15.0039 4.07132 14.7285 4.0417 14.4583 3.98258Z" fill="white"/>
</g>
<defs>
<clipPath id="clip0_8206_418">
<rect width="15" height="17" fill="white" transform="translate(0.166748 0.5)"/>
</clipPath>
</defs>
</svg>
