<svg width="17" height="17" viewBox="0 0 17 17" fill="none" xmlns="http://www.w3.org/2000/svg">
<path d="M12.3085 0H4.69129C2.10451 0 0 2.10461 0 4.69139V12.3086C0 14.8955 2.10451 17 4.69129 17H12.3085C14.8955 17 17 14.8954 17 12.3086V4.69139C17.0001 2.10461 14.8955 0 12.3085 0ZM15.4918 12.3086C15.4918 14.0638 14.0638 15.4917 12.3086 15.4917H4.69129C2.9362 15.4918 1.50832 14.0638 1.50832 12.3086V4.69139C1.50832 2.9363 2.9362 1.50832 4.69129 1.50832H12.3085C14.0637 1.50832 15.4917 2.9363 15.4917 4.69139V12.3086H15.4918Z" fill="white"/>
<path d="M8.49973 4.11914C6.08431 4.11914 4.11926 6.08418 4.11926 8.49961C4.11926 10.9149 6.08431 12.8799 8.49973 12.8799C10.9152 12.8799 12.8802 10.9149 12.8802 8.49961C12.8802 6.08418 10.9152 4.11914 8.49973 4.11914ZM8.49973 11.3715C6.91609 11.3715 5.62759 10.0831 5.62759 8.49951C5.62759 6.91577 6.91599 5.62736 8.49973 5.62736C10.0835 5.62736 11.3719 6.91577 11.3719 8.49951C11.3719 10.0831 10.0834 11.3715 8.49973 11.3715Z" fill="white"/>
<path d="M13.0641 2.83984C12.7735 2.83984 12.488 2.95749 12.2828 3.16363C12.0766 3.36876 11.958 3.65434 11.958 3.94595C11.958 4.23665 12.0767 4.52213 12.2828 4.72826C12.4879 4.9334 12.7735 5.05205 13.0641 5.05205C13.3557 5.05205 13.6403 4.9334 13.8464 4.72826C14.0526 4.52213 14.1702 4.23655 14.1702 3.94595C14.1702 3.65434 14.0526 3.36876 13.8464 3.16363C13.6413 2.95749 13.3557 2.83984 13.0641 2.83984Z" fill="white"/>
</svg>
